<svg width="150" height="150" viewBox="0 0 150 150" fill="none" xmlns="http://www.w3.org/2000/svg">
<rect width="150" height="150" rx="5" fill="white"/>
<path d="M34.5156 77.375H115.484V101.188H120.234V34.5H115.484V44.0313H34.5156V34.5H29.7656V101.188H34.5156V77.375ZM77.3906 48.7813H115.484V72.5938H77.3906V48.7813ZM34.5156 48.7813H72.6094V72.5938H34.5156V48.7813Z" fill="black"/>
<path d="M110.703 101.188H115.484V105.938H110.703V101.188ZM110.703 29.75H115.484V34.5H110.703V29.75ZM105.953 86.9062H110.703V96.4062H105.953V86.9062ZM39.2969 105.938V110.688H48.7969V115.469H44.0469V120.219H39.2969V125H48.7969V120.219H53.5781V115.469H58.3281V110.688H91.6719V115.469H96.4219V120.219H101.203V125H110.703V120.219H105.953V115.469H101.203V110.688H110.703V105.938H39.2969ZM96.4219 82.125H105.953V86.9062H96.4219V82.125ZM96.4219 96.4062H105.953V101.188H96.4219V96.4062ZM91.6719 86.9062H96.4219V96.4062H91.6719V86.9062ZM67.8594 86.9062H82.1406V96.4062H67.8594V86.9062ZM67.8594 34.5H82.1406V39.2813H67.8594V34.5ZM53.5781 86.9062H58.3281V96.4062H53.5781V86.9062ZM44.0469 82.125H53.5781V86.9062H44.0469V82.125ZM44.0469 96.4062H53.5781V101.188H44.0469V96.4062ZM39.2969 25H110.703V29.75H39.2969V25ZM39.2969 86.9062H44.0469V96.4062H39.2969V86.9062ZM34.5156 101.188H39.2969V105.938H34.5156V101.188ZM34.5156 29.75H39.2969V34.5H34.5156V29.75Z" fill="black"/>
</svg>
